<svg width="69" height="58" viewBox="0 0 69 58" fill="none" xmlns="http://www.w3.org/2000/svg">
<g clip-path="url(#clip0_8_58)">
<path d="M34.5001 57.3423C53.5539 57.3423 69.0001 44.5908 69.0001 28.8611C69.0001 13.1314 53.5539 0.379883 34.5001 0.379883C15.4463 0.379883 0.00012207 13.1314 0.00012207 28.8611C0.00012207 44.5908 15.4463 57.3423 34.5001 57.3423Z" fill="#D1002C"/>
<path fill-rule="evenodd" clip-rule="evenodd" d="M33.0773 23.7038C33.1126 23.6906 33.1425 23.6692 33.1634 23.6422C33.1843 23.6153 33.1953 23.5839 33.1952 23.5519V9.53205C33.1952 9.36116 32.922 9.29945 32.8185 9.44898L19.5935 28.4127C19.5716 28.4433 19.5622 28.4789 19.5665 28.5142C19.5709 28.5495 19.5889 28.5828 19.6178 28.6091C19.6468 28.6353 19.6852 28.6533 19.7274 28.6602C19.7696 28.6672 19.8133 28.6628 19.8523 28.6477L33.0773 23.7038ZM33.1952 37.6027C33.1958 37.6328 33.1865 37.6625 33.1683 37.6886C33.1501 37.7147 33.1236 37.7362 33.0917 37.7508C33.0598 37.7654 33.0237 37.7726 32.9872 37.7716C32.9507 37.7706 32.9153 37.7614 32.8847 37.7451L19.5964 30.8787C19.5648 30.8632 19.5389 30.8408 19.5216 30.814C19.5043 30.7871 19.4962 30.7569 19.4983 30.7265C19.5004 30.6962 19.5125 30.6669 19.5333 30.6418C19.5542 30.6168 19.583 30.5969 19.6165 30.5844L32.9077 25.4507C32.9385 25.4386 32.9726 25.4332 33.0066 25.435C33.0407 25.4368 33.0737 25.4457 33.1024 25.4608C33.1312 25.476 33.1548 25.497 33.171 25.5218C33.1872 25.5466 33.1955 25.5744 33.1952 25.6026V37.6027ZM33.0802 49.5838C33.0802 49.7499 32.8214 49.814 32.7064 49.6787L19.0214 32.9222C18.8978 32.768 19.1134 32.5876 19.3003 32.6849L32.9853 39.9761C33.0141 39.9909 33.038 40.0115 33.0546 40.036C33.0711 40.0605 33.08 40.0881 33.0802 40.1161V49.5838ZM34.2129 23.7038C34.1776 23.6906 34.1477 23.6692 34.1268 23.6422C34.1059 23.6153 34.0949 23.5839 34.095 23.5519V9.53205C34.095 9.36116 34.3682 9.29945 34.4745 9.44898L47.6967 28.4127C47.7186 28.4433 47.728 28.4789 47.7237 28.5142C47.7193 28.5495 47.7013 28.5828 47.6724 28.6091C47.6434 28.6353 47.605 28.6533 47.5628 28.6602C47.5206 28.6672 47.4769 28.6628 47.4379 28.6477L34.2129 23.7038ZM34.095 37.6027C34.095 37.7332 34.2675 37.8139 34.4055 37.7451L47.6938 30.8787C47.7254 30.8632 47.7513 30.8408 47.7686 30.814C47.7859 30.7871 47.794 30.7569 47.7919 30.7265C47.7898 30.6962 47.7777 30.6669 47.7569 30.6418C47.736 30.6168 47.7072 30.5969 47.6737 30.5844L34.3825 25.4507C34.3517 25.4386 34.3176 25.4332 34.2836 25.435C34.2495 25.4368 34.2165 25.4457 34.1878 25.4608C34.159 25.476 34.1354 25.497 34.1192 25.5218C34.103 25.5466 34.0947 25.5744 34.095 25.6026V37.6027ZM34.095 49.5933C34.095 49.7594 34.3538 49.8235 34.4659 49.6882L48.3522 32.9222C48.4758 32.7703 48.2602 32.5876 48.0733 32.6849L34.187 39.9785C34.1583 39.9938 34.1348 40.0149 34.1187 40.0398C34.1026 40.0647 34.0944 40.0926 34.095 40.1209V49.5933Z" fill="white"/>
</g>
<defs>
<clipPath id="clip0_8_58">
<rect width="69" height="56.9624" fill="white" transform="translate(0 0.379791)"/>
</clipPath>
</defs>
</svg>
