<svg width="155" height="31" viewBox="0 0 155 31" fill="none" xmlns="http://www.w3.org/2000/svg">
<path d="M0 13.704H20.2178V8.88681H0V13.704ZM5.85196 23.6082C5.85196 26.1413 6.64395 28.0031 8.22794 29.1936C9.81193 30.3702 11.8946 30.9585 14.4759 30.9585C15.5319 30.9585 16.4925 30.8962 17.3579 30.7716C18.2379 30.647 18.9125 30.5017 19.3819 30.3356L19.3599 25.6638C18.8759 25.7883 18.3772 25.8922 17.8639 25.9752C17.3505 26.0583 16.8152 26.0998 16.2579 26.0998C15.0846 26.0998 14.1606 25.8991 13.4859 25.4977C12.8259 25.0824 12.4959 24.3487 12.4959 23.2967V3.42599H5.89596V10.6725L5.85196 11.2331V23.6082Z" fill="white"/>
<path d="M22.5278 24.0442C22.5278 26.2451 23.6205 27.9201 25.8058 29.069C27.9911 30.2041 30.7338 30.7716 34.0337 30.7716C37.0697 30.7716 39.6877 30.4671 41.8877 29.858C44.1023 29.2351 45.5543 28.4876 46.2437 27.6155C46.317 28.1139 46.4563 28.626 46.6616 29.152C46.867 29.6642 47.1016 30.0726 47.3656 30.3771H53.8556V30.0449C53.4303 29.505 53.0929 28.8337 52.8436 28.0308C52.5943 27.228 52.4696 26.3836 52.4696 25.4977V15.6973C52.4696 13.1918 51.2596 11.33 48.8396 10.1119C46.4343 8.87988 43.083 8.2639 38.7857 8.2639C34.4884 8.2639 31.0051 8.86604 28.3358 10.0703C25.6665 11.2608 24.3318 12.9011 24.3318 14.9913V15.4689H30.8658V15.0121C30.8658 14.2646 31.4818 13.6901 32.7138 13.2887C33.9604 12.8734 35.8524 12.6658 38.3897 12.6658C41.0297 12.6658 42.929 12.9149 44.0877 13.4133C45.2463 13.9116 45.8257 14.6452 45.8257 15.6142V16.8392L37.2237 16.8185C32.8678 16.8185 29.3258 17.4345 26.5978 18.6664C23.8845 19.8984 22.5278 21.691 22.5278 24.0442ZM29.2158 23.6289C29.2158 22.66 30.0004 21.9263 31.5698 21.428C33.1537 20.9158 35.4051 20.6667 38.3237 20.6805H45.8477V22.5492C45.8477 23.6705 44.8943 24.5979 42.9877 25.3315C41.081 26.0652 38.9104 26.432 36.4757 26.432C33.9824 26.432 32.1491 26.1967 30.9758 25.7261C29.8024 25.2416 29.2158 24.5425 29.2158 23.6289Z" fill="white"/>
<path d="M58.2116 30.3771H64.8775V23.4628L87.8013 8.86604H78.6714L64.8775 16.777V0H58.2116V30.3771ZM80.6294 30.3771H89.2533L72.2694 15.1574L67.4295 18.8118L80.6294 30.3771Z" fill="white"/>
<path d="M89.3413 19.933C89.3413 23.2552 90.8373 25.9337 93.8293 27.9685C96.8359 29.9895 100.95 31 106.171 31C109.53 31 112.426 30.5778 114.861 29.7334C117.31 28.889 119.063 27.747 120.119 26.3074L115.389 23.3382C114.48 24.1273 113.233 24.8055 111.649 25.3731C110.065 25.9268 108.232 26.2036 106.149 26.2036C102.776 26.2036 100.187 25.6638 98.3833 24.5841C96.5939 23.4905 95.6993 22.0163 95.6993 20.1614V18.9987C95.6993 17.1576 96.5353 15.6834 98.2073 14.576C99.8792 13.4686 102.197 12.9149 105.159 12.9149C108.591 12.9149 110.938 13.3302 112.199 14.1608C113.46 14.9775 114.098 16.1194 114.113 17.5867L114.091 17.296H93.2353V21.2204H120.603V18.9364C120.618 15.6142 119.268 13.0049 116.555 11.1085C113.842 9.19826 110.138 8.24313 105.445 8.24313C100.752 8.24313 96.8946 9.26055 93.8733 11.2954C90.852 13.3164 89.3413 15.981 89.3413 19.2894V19.933Z" fill="white"/>
<path d="M123.309 19.933C123.309 23.2552 124.805 25.9337 127.797 27.9685C130.804 29.9895 134.918 31 140.139 31C143.498 31 146.394 30.5778 148.829 29.7334C151.278 28.889 153.031 27.747 154.087 26.3074L149.357 23.3382C148.448 24.1273 147.201 24.8055 145.617 25.3731C144.033 25.9268 142.2 26.2036 140.117 26.2036C136.744 26.2036 134.155 25.6638 132.351 24.5841C130.562 23.4905 129.667 22.0163 129.667 20.1614V18.9987C129.667 17.1576 130.503 15.6834 132.175 14.576C133.847 13.4686 136.164 12.9149 139.127 12.9149C142.559 12.9149 144.906 13.3302 146.167 14.1608C147.428 14.9775 148.066 16.1194 148.081 17.5867L148.059 17.296H127.203V21.2204H154.571V18.9364C154.586 15.6142 153.236 13.0049 150.523 11.1085C147.81 9.19826 144.106 8.24313 139.413 8.24313C134.72 8.24313 130.862 9.26055 127.841 11.2954C124.82 13.3164 123.309 15.981 123.309 19.2894V19.933Z" fill="white"/>
</svg>
